<mxfile host="Electron" agent="Mozilla/5.0 (Windows NT 10.0; Win64; x64) AppleWebKit/537.36 (KHTML, like Gecko) draw.io/24.7.17 Chrome/128.0.6613.36 Electron/32.0.1 Safari/537.36" version="24.7.17">
  <diagram id="C5RBs43oDa-KdzZeNtuy" name="Page-1">
    <mxGraphModel dx="956" dy="460" grid="1" gridSize="10" guides="1" tooltips="1" connect="1" arrows="1" fold="1" page="1" pageScale="1" pageWidth="827" pageHeight="1169" math="0" shadow="0">
      <root>
        <mxCell id="WIyWlLk6GJQsqaUBKTNV-0" />
        <mxCell id="WIyWlLk6GJQsqaUBKTNV-1" parent="WIyWlLk6GJQsqaUBKTNV-0" />
        <mxCell id="jOrfWxV1WeB5Tp7_03PW-16" value="" style="edgeStyle=orthogonalEdgeStyle;rounded=0;orthogonalLoop=1;jettySize=auto;html=1;" parent="WIyWlLk6GJQsqaUBKTNV-1" source="jOrfWxV1WeB5Tp7_03PW-0" target="jOrfWxV1WeB5Tp7_03PW-2" edge="1">
          <mxGeometry relative="1" as="geometry" />
        </mxCell>
        <mxCell id="jOrfWxV1WeB5Tp7_03PW-0" value="" style="strokeWidth=2;html=1;shape=mxgraph.flowchart.start_1;whiteSpace=wrap;" parent="WIyWlLk6GJQsqaUBKTNV-1" vertex="1">
          <mxGeometry x="357" y="40" width="100" height="60" as="geometry" />
        </mxCell>
        <mxCell id="jOrfWxV1WeB5Tp7_03PW-17" value="" style="edgeStyle=orthogonalEdgeStyle;rounded=0;orthogonalLoop=1;jettySize=auto;html=1;" parent="WIyWlLk6GJQsqaUBKTNV-1" source="jOrfWxV1WeB5Tp7_03PW-2" target="jOrfWxV1WeB5Tp7_03PW-3" edge="1">
          <mxGeometry relative="1" as="geometry" />
        </mxCell>
        <mxCell id="jOrfWxV1WeB5Tp7_03PW-2" value="" style="verticalLabelPosition=bottom;verticalAlign=top;html=1;shape=hexagon;perimeter=hexagonPerimeter2;arcSize=6;size=0.27;" parent="WIyWlLk6GJQsqaUBKTNV-1" vertex="1">
          <mxGeometry x="327" y="140" width="161" height="80" as="geometry" />
        </mxCell>
        <mxCell id="jOrfWxV1WeB5Tp7_03PW-18" value="" style="edgeStyle=orthogonalEdgeStyle;rounded=0;orthogonalLoop=1;jettySize=auto;html=1;" parent="WIyWlLk6GJQsqaUBKTNV-1" source="jOrfWxV1WeB5Tp7_03PW-3" target="jOrfWxV1WeB5Tp7_03PW-5" edge="1">
          <mxGeometry relative="1" as="geometry" />
        </mxCell>
        <mxCell id="jOrfWxV1WeB5Tp7_03PW-3" value="" style="shape=parallelogram;html=1;strokeWidth=2;perimeter=parallelogramPerimeter;whiteSpace=wrap;rounded=1;arcSize=12;size=0.23;" parent="WIyWlLk6GJQsqaUBKTNV-1" vertex="1">
          <mxGeometry x="347" y="250" width="120" height="80" as="geometry" />
        </mxCell>
        <mxCell id="jOrfWxV1WeB5Tp7_03PW-7" value="" style="edgeStyle=orthogonalEdgeStyle;rounded=0;orthogonalLoop=1;jettySize=auto;html=1;" parent="WIyWlLk6GJQsqaUBKTNV-1" source="jOrfWxV1WeB5Tp7_03PW-5" target="jOrfWxV1WeB5Tp7_03PW-6" edge="1">
          <mxGeometry relative="1" as="geometry" />
        </mxCell>
        <mxCell id="jOrfWxV1WeB5Tp7_03PW-22" value="" style="edgeStyle=orthogonalEdgeStyle;rounded=0;orthogonalLoop=1;jettySize=auto;html=1;" parent="WIyWlLk6GJQsqaUBKTNV-1" source="jOrfWxV1WeB5Tp7_03PW-5" target="jOrfWxV1WeB5Tp7_03PW-19" edge="1">
          <mxGeometry relative="1" as="geometry" />
        </mxCell>
        <mxCell id="jOrfWxV1WeB5Tp7_03PW-5" value="" style="strokeWidth=2;html=1;shape=mxgraph.flowchart.decision;whiteSpace=wrap;" parent="WIyWlLk6GJQsqaUBKTNV-1" vertex="1">
          <mxGeometry x="356" y="364" width="100" height="100" as="geometry" />
        </mxCell>
        <mxCell id="jOrfWxV1WeB5Tp7_03PW-23" value="" style="edgeStyle=orthogonalEdgeStyle;rounded=0;orthogonalLoop=1;jettySize=auto;html=1;" parent="WIyWlLk6GJQsqaUBKTNV-1" source="jOrfWxV1WeB5Tp7_03PW-6" target="jOrfWxV1WeB5Tp7_03PW-20" edge="1">
          <mxGeometry relative="1" as="geometry" />
        </mxCell>
        <mxCell id="jOrfWxV1WeB5Tp7_03PW-56" value="" style="edgeStyle=orthogonalEdgeStyle;shape=connector;rounded=0;orthogonalLoop=1;jettySize=auto;html=1;strokeColor=default;align=center;verticalAlign=middle;fontFamily=Helvetica;fontSize=11;fontColor=default;labelBackgroundColor=default;endArrow=classic;" parent="WIyWlLk6GJQsqaUBKTNV-1" source="jOrfWxV1WeB5Tp7_03PW-6" target="jOrfWxV1WeB5Tp7_03PW-55" edge="1">
          <mxGeometry relative="1" as="geometry" />
        </mxCell>
        <mxCell id="jOrfWxV1WeB5Tp7_03PW-59" value="" style="edgeStyle=orthogonalEdgeStyle;shape=connector;rounded=0;orthogonalLoop=1;jettySize=auto;html=1;strokeColor=default;align=center;verticalAlign=middle;fontFamily=Helvetica;fontSize=11;fontColor=default;labelBackgroundColor=default;endArrow=classic;" parent="WIyWlLk6GJQsqaUBKTNV-1" source="jOrfWxV1WeB5Tp7_03PW-6" target="jOrfWxV1WeB5Tp7_03PW-58" edge="1">
          <mxGeometry relative="1" as="geometry" />
        </mxCell>
        <mxCell id="jOrfWxV1WeB5Tp7_03PW-6" value="" style="strokeWidth=2;html=1;shape=mxgraph.flowchart.decision;whiteSpace=wrap;" parent="WIyWlLk6GJQsqaUBKTNV-1" vertex="1">
          <mxGeometry x="356" y="499" width="100" height="100" as="geometry" />
        </mxCell>
        <mxCell id="jOrfWxV1WeB5Tp7_03PW-19" value="" style="rounded=0;whiteSpace=wrap;html=1;" parent="WIyWlLk6GJQsqaUBKTNV-1" vertex="1">
          <mxGeometry x="526" y="384" width="120" height="60" as="geometry" />
        </mxCell>
        <mxCell id="jOrfWxV1WeB5Tp7_03PW-100" value="" style="edgeStyle=orthogonalEdgeStyle;shape=connector;rounded=0;orthogonalLoop=1;jettySize=auto;html=1;strokeColor=default;align=center;verticalAlign=middle;fontFamily=Helvetica;fontSize=11;fontColor=default;labelBackgroundColor=default;endArrow=classic;" parent="WIyWlLk6GJQsqaUBKTNV-1" edge="1">
          <mxGeometry relative="1" as="geometry">
            <mxPoint x="650" y="548.9999999999998" as="sourcePoint" />
            <mxPoint x="774" y="549" as="targetPoint" />
          </mxGeometry>
        </mxCell>
        <mxCell id="jOrfWxV1WeB5Tp7_03PW-20" value="" style="rounded=0;whiteSpace=wrap;html=1;" parent="WIyWlLk6GJQsqaUBKTNV-1" vertex="1">
          <mxGeometry x="526" y="519" width="120" height="60" as="geometry" />
        </mxCell>
        <mxCell id="jOrfWxV1WeB5Tp7_03PW-39" value="Start" style="text;strokeColor=none;align=center;fillColor=none;html=1;verticalAlign=middle;whiteSpace=wrap;rounded=0;fontFamily=Helvetica;fontSize=11;fontColor=default;labelBackgroundColor=default;" parent="WIyWlLk6GJQsqaUBKTNV-1" vertex="1">
          <mxGeometry x="376" y="55" width="60" height="30" as="geometry" />
        </mxCell>
        <mxCell id="jOrfWxV1WeB5Tp7_03PW-47" value="bil1, bil2, bil3, terbesar, terkecil : &lt;b&gt;Int&lt;/b&gt;&lt;div&gt;status : &lt;b&gt;string&lt;/b&gt;&lt;/div&gt;" style="text;strokeColor=none;align=center;fillColor=none;html=1;verticalAlign=middle;whiteSpace=wrap;rounded=0;fontFamily=Helvetica;fontSize=11;fontColor=default;labelBackgroundColor=default;" parent="WIyWlLk6GJQsqaUBKTNV-1" vertex="1">
          <mxGeometry x="354.38" y="173.5" width="106.25" height="13" as="geometry" />
        </mxCell>
        <mxCell id="jOrfWxV1WeB5Tp7_03PW-48" value="Input bil1&lt;div&gt;Input bil2&lt;/div&gt;&lt;div&gt;Input bil3&lt;/div&gt;" style="text;strokeColor=none;align=center;fillColor=none;html=1;verticalAlign=middle;whiteSpace=wrap;rounded=0;fontFamily=Helvetica;fontSize=11;fontColor=default;labelBackgroundColor=default;" parent="WIyWlLk6GJQsqaUBKTNV-1" vertex="1">
          <mxGeometry x="377" y="275" width="60" height="30" as="geometry" />
        </mxCell>
        <mxCell id="jOrfWxV1WeB5Tp7_03PW-49" value="bil1 &amp;gt;= bil2 &amp;amp;&amp;amp;&lt;div&gt;bil1 &amp;gt;= bil3&lt;/div&gt;" style="text;strokeColor=none;align=center;fillColor=none;html=1;verticalAlign=middle;whiteSpace=wrap;rounded=0;fontFamily=Helvetica;fontSize=11;fontColor=default;labelBackgroundColor=default;" parent="WIyWlLk6GJQsqaUBKTNV-1" vertex="1">
          <mxGeometry x="376" y="399" width="60" height="30" as="geometry" />
        </mxCell>
        <mxCell id="jOrfWxV1WeB5Tp7_03PW-50" value="bil2 &amp;gt;= bil1&lt;div&gt;&amp;amp;&amp;amp;&lt;/div&gt;&lt;div&gt;bil2 &amp;gt;= bil3&lt;/div&gt;" style="text;strokeColor=none;align=center;fillColor=none;html=1;verticalAlign=middle;whiteSpace=wrap;rounded=0;fontFamily=Helvetica;fontSize=11;fontColor=default;labelBackgroundColor=default;" parent="WIyWlLk6GJQsqaUBKTNV-1" vertex="1">
          <mxGeometry x="377" y="534" width="60" height="30" as="geometry" />
        </mxCell>
        <mxCell id="jOrfWxV1WeB5Tp7_03PW-51" value="terbesar = bil1" style="text;strokeColor=none;align=center;fillColor=none;html=1;verticalAlign=middle;whiteSpace=wrap;rounded=0;fontFamily=Helvetica;fontSize=11;fontColor=default;labelBackgroundColor=default;rotation=0;" parent="WIyWlLk6GJQsqaUBKTNV-1" vertex="1">
          <mxGeometry x="549" y="393.5" width="76" height="41" as="geometry" />
        </mxCell>
        <mxCell id="jOrfWxV1WeB5Tp7_03PW-52" value="terbesar = bil2" style="text;strokeColor=none;align=center;fillColor=none;html=1;verticalAlign=middle;whiteSpace=wrap;rounded=0;fontFamily=Helvetica;fontSize=11;fontColor=default;labelBackgroundColor=default;" parent="WIyWlLk6GJQsqaUBKTNV-1" vertex="1">
          <mxGeometry x="545.5" y="534" width="76" height="36" as="geometry" />
        </mxCell>
        <mxCell id="jOrfWxV1WeB5Tp7_03PW-120" value="" style="edgeStyle=elbowEdgeStyle;shape=connector;rounded=0;orthogonalLoop=1;jettySize=auto;html=1;strokeColor=default;align=center;verticalAlign=middle;fontFamily=Helvetica;fontSize=11;fontColor=default;labelBackgroundColor=default;endArrow=classic;entryX=0;entryY=0.5;entryDx=0;entryDy=0;" parent="WIyWlLk6GJQsqaUBKTNV-1" source="jOrfWxV1WeB5Tp7_03PW-55" target="jOrfWxV1WeB5Tp7_03PW-104" edge="1">
          <mxGeometry relative="1" as="geometry">
            <mxPoint x="70" y="1080" as="targetPoint" />
            <Array as="points">
              <mxPoint x="70" y="820" />
            </Array>
          </mxGeometry>
        </mxCell>
        <mxCell id="jOrfWxV1WeB5Tp7_03PW-55" value="" style="whiteSpace=wrap;html=1;strokeWidth=2;" parent="WIyWlLk6GJQsqaUBKTNV-1" vertex="1">
          <mxGeometry x="165" y="519" width="120" height="60" as="geometry" />
        </mxCell>
        <mxCell id="jOrfWxV1WeB5Tp7_03PW-57" value="terbesar = bil3" style="text;strokeColor=none;align=center;fillColor=none;html=1;verticalAlign=middle;whiteSpace=wrap;rounded=0;fontFamily=Helvetica;fontSize=11;fontColor=default;labelBackgroundColor=default;" parent="WIyWlLk6GJQsqaUBKTNV-1" vertex="1">
          <mxGeometry x="181" y="531" width="73" height="36" as="geometry" />
        </mxCell>
        <mxCell id="jOrfWxV1WeB5Tp7_03PW-61" value="" style="edgeStyle=orthogonalEdgeStyle;shape=connector;rounded=0;orthogonalLoop=1;jettySize=auto;html=1;strokeColor=default;align=center;verticalAlign=middle;fontFamily=Helvetica;fontSize=11;fontColor=default;labelBackgroundColor=default;endArrow=classic;" parent="WIyWlLk6GJQsqaUBKTNV-1" source="jOrfWxV1WeB5Tp7_03PW-58" target="jOrfWxV1WeB5Tp7_03PW-60" edge="1">
          <mxGeometry relative="1" as="geometry" />
        </mxCell>
        <mxCell id="jOrfWxV1WeB5Tp7_03PW-65" value="" style="edgeStyle=orthogonalEdgeStyle;shape=connector;rounded=0;orthogonalLoop=1;jettySize=auto;html=1;strokeColor=default;align=center;verticalAlign=middle;fontFamily=Helvetica;fontSize=11;fontColor=default;labelBackgroundColor=default;endArrow=classic;" parent="WIyWlLk6GJQsqaUBKTNV-1" source="jOrfWxV1WeB5Tp7_03PW-58" target="jOrfWxV1WeB5Tp7_03PW-64" edge="1">
          <mxGeometry relative="1" as="geometry" />
        </mxCell>
        <mxCell id="jOrfWxV1WeB5Tp7_03PW-58" value="" style="strokeWidth=2;html=1;shape=mxgraph.flowchart.decision;whiteSpace=wrap;" parent="WIyWlLk6GJQsqaUBKTNV-1" vertex="1">
          <mxGeometry x="356" y="630" width="100" height="100" as="geometry" />
        </mxCell>
        <mxCell id="jOrfWxV1WeB5Tp7_03PW-63" value="" style="edgeStyle=orthogonalEdgeStyle;shape=connector;rounded=0;orthogonalLoop=1;jettySize=auto;html=1;strokeColor=default;align=center;verticalAlign=middle;fontFamily=Helvetica;fontSize=11;fontColor=default;labelBackgroundColor=default;endArrow=classic;" parent="WIyWlLk6GJQsqaUBKTNV-1" source="jOrfWxV1WeB5Tp7_03PW-60" target="jOrfWxV1WeB5Tp7_03PW-62" edge="1">
          <mxGeometry relative="1" as="geometry" />
        </mxCell>
        <mxCell id="jOrfWxV1WeB5Tp7_03PW-67" value="" style="edgeStyle=orthogonalEdgeStyle;shape=connector;rounded=0;orthogonalLoop=1;jettySize=auto;html=1;strokeColor=default;align=center;verticalAlign=middle;fontFamily=Helvetica;fontSize=11;fontColor=default;labelBackgroundColor=default;endArrow=classic;" parent="WIyWlLk6GJQsqaUBKTNV-1" source="jOrfWxV1WeB5Tp7_03PW-60" target="jOrfWxV1WeB5Tp7_03PW-66" edge="1">
          <mxGeometry relative="1" as="geometry" />
        </mxCell>
        <mxCell id="jOrfWxV1WeB5Tp7_03PW-69" value="" style="edgeStyle=orthogonalEdgeStyle;shape=connector;rounded=0;orthogonalLoop=1;jettySize=auto;html=1;strokeColor=default;align=center;verticalAlign=middle;fontFamily=Helvetica;fontSize=11;fontColor=default;labelBackgroundColor=default;endArrow=classic;" parent="WIyWlLk6GJQsqaUBKTNV-1" source="jOrfWxV1WeB5Tp7_03PW-60" target="jOrfWxV1WeB5Tp7_03PW-68" edge="1">
          <mxGeometry relative="1" as="geometry" />
        </mxCell>
        <mxCell id="jOrfWxV1WeB5Tp7_03PW-60" value="" style="strokeWidth=2;html=1;shape=mxgraph.flowchart.decision;whiteSpace=wrap;" parent="WIyWlLk6GJQsqaUBKTNV-1" vertex="1">
          <mxGeometry x="356" y="760" width="100" height="100" as="geometry" />
        </mxCell>
        <mxCell id="jOrfWxV1WeB5Tp7_03PW-71" value="" style="edgeStyle=orthogonalEdgeStyle;shape=connector;rounded=0;orthogonalLoop=1;jettySize=auto;html=1;strokeColor=default;align=center;verticalAlign=middle;fontFamily=Helvetica;fontSize=11;fontColor=default;labelBackgroundColor=default;endArrow=classic;" parent="WIyWlLk6GJQsqaUBKTNV-1" source="jOrfWxV1WeB5Tp7_03PW-62" target="jOrfWxV1WeB5Tp7_03PW-70" edge="1">
          <mxGeometry relative="1" as="geometry" />
        </mxCell>
        <mxCell id="jOrfWxV1WeB5Tp7_03PW-73" value="" style="edgeStyle=orthogonalEdgeStyle;shape=connector;rounded=0;orthogonalLoop=1;jettySize=auto;html=1;strokeColor=default;align=center;verticalAlign=middle;fontFamily=Helvetica;fontSize=11;fontColor=default;labelBackgroundColor=default;endArrow=classic;" parent="WIyWlLk6GJQsqaUBKTNV-1" source="jOrfWxV1WeB5Tp7_03PW-62" target="jOrfWxV1WeB5Tp7_03PW-72" edge="1">
          <mxGeometry relative="1" as="geometry" />
        </mxCell>
        <mxCell id="jOrfWxV1WeB5Tp7_03PW-62" value="" style="strokeWidth=2;html=1;shape=mxgraph.flowchart.decision;whiteSpace=wrap;" parent="WIyWlLk6GJQsqaUBKTNV-1" vertex="1">
          <mxGeometry x="356" y="890" width="100" height="100" as="geometry" />
        </mxCell>
        <mxCell id="jOrfWxV1WeB5Tp7_03PW-102" value="" style="edgeStyle=orthogonalEdgeStyle;shape=connector;rounded=0;orthogonalLoop=1;jettySize=auto;html=1;strokeColor=default;align=center;verticalAlign=middle;fontFamily=Helvetica;fontSize=11;fontColor=default;labelBackgroundColor=default;endArrow=classic;" parent="WIyWlLk6GJQsqaUBKTNV-1" edge="1">
          <mxGeometry relative="1" as="geometry">
            <mxPoint x="649" y="680" as="sourcePoint" />
            <mxPoint x="773" y="680" as="targetPoint" />
          </mxGeometry>
        </mxCell>
        <mxCell id="jOrfWxV1WeB5Tp7_03PW-64" value="" style="whiteSpace=wrap;html=1;strokeWidth=2;" parent="WIyWlLk6GJQsqaUBKTNV-1" vertex="1">
          <mxGeometry x="526" y="650" width="120" height="60" as="geometry" />
        </mxCell>
        <mxCell id="jOrfWxV1WeB5Tp7_03PW-108" value="" style="edgeStyle=orthogonalEdgeStyle;shape=connector;rounded=0;orthogonalLoop=1;jettySize=auto;html=1;strokeColor=default;align=center;verticalAlign=middle;fontFamily=Helvetica;fontSize=11;fontColor=default;labelBackgroundColor=default;endArrow=classic;" parent="WIyWlLk6GJQsqaUBKTNV-1" edge="1">
          <mxGeometry relative="1" as="geometry">
            <mxPoint x="648" y="810" as="sourcePoint" />
            <mxPoint x="772" y="810" as="targetPoint" />
          </mxGeometry>
        </mxCell>
        <mxCell id="jOrfWxV1WeB5Tp7_03PW-66" value="" style="whiteSpace=wrap;html=1;strokeWidth=2;" parent="WIyWlLk6GJQsqaUBKTNV-1" vertex="1">
          <mxGeometry x="526" y="780" width="120" height="60" as="geometry" />
        </mxCell>
        <mxCell id="jOrfWxV1WeB5Tp7_03PW-124" value="" style="edgeStyle=orthogonalEdgeStyle;shape=connector;rounded=0;orthogonalLoop=1;jettySize=auto;html=1;strokeColor=default;align=center;verticalAlign=middle;fontFamily=Helvetica;fontSize=11;fontColor=default;labelBackgroundColor=default;endArrow=classic;exitX=0;exitY=0.5;exitDx=0;exitDy=0;" parent="WIyWlLk6GJQsqaUBKTNV-1" source="jOrfWxV1WeB5Tp7_03PW-68" edge="1">
          <mxGeometry relative="1" as="geometry">
            <mxPoint x="159" y="810" as="sourcePoint" />
            <mxPoint x="73" y="810" as="targetPoint" />
          </mxGeometry>
        </mxCell>
        <mxCell id="jOrfWxV1WeB5Tp7_03PW-68" value="" style="whiteSpace=wrap;html=1;strokeWidth=2;" parent="WIyWlLk6GJQsqaUBKTNV-1" vertex="1">
          <mxGeometry x="166" y="780" width="120" height="60" as="geometry" />
        </mxCell>
        <mxCell id="jOrfWxV1WeB5Tp7_03PW-110" value="" style="edgeStyle=orthogonalEdgeStyle;shape=connector;rounded=0;orthogonalLoop=1;jettySize=auto;html=1;strokeColor=default;align=center;verticalAlign=middle;fontFamily=Helvetica;fontSize=11;fontColor=default;labelBackgroundColor=default;endArrow=classic;" parent="WIyWlLk6GJQsqaUBKTNV-1" edge="1">
          <mxGeometry relative="1" as="geometry">
            <mxPoint x="649" y="940" as="sourcePoint" />
            <mxPoint x="772" y="940" as="targetPoint" />
          </mxGeometry>
        </mxCell>
        <mxCell id="jOrfWxV1WeB5Tp7_03PW-70" value="" style="whiteSpace=wrap;html=1;strokeWidth=2;" parent="WIyWlLk6GJQsqaUBKTNV-1" vertex="1">
          <mxGeometry x="527" y="910" width="120" height="60" as="geometry" />
        </mxCell>
        <mxCell id="jOrfWxV1WeB5Tp7_03PW-126" value="" style="edgeStyle=orthogonalEdgeStyle;shape=connector;rounded=0;orthogonalLoop=1;jettySize=auto;html=1;strokeColor=default;align=center;verticalAlign=middle;fontFamily=Helvetica;fontSize=11;fontColor=default;labelBackgroundColor=default;endArrow=classic;exitX=0;exitY=0.5;exitDx=0;exitDy=0;" parent="WIyWlLk6GJQsqaUBKTNV-1" source="jOrfWxV1WeB5Tp7_03PW-72" edge="1">
          <mxGeometry relative="1" as="geometry">
            <mxPoint x="160" y="940" as="sourcePoint" />
            <mxPoint x="73" y="940" as="targetPoint" />
          </mxGeometry>
        </mxCell>
        <mxCell id="jOrfWxV1WeB5Tp7_03PW-72" value="" style="whiteSpace=wrap;html=1;strokeWidth=2;" parent="WIyWlLk6GJQsqaUBKTNV-1" vertex="1">
          <mxGeometry x="167" y="910" width="120" height="60" as="geometry" />
        </mxCell>
        <mxCell id="jOrfWxV1WeB5Tp7_03PW-75" value="" style="strokeWidth=2;html=1;shape=mxgraph.flowchart.start_1;whiteSpace=wrap;" parent="WIyWlLk6GJQsqaUBKTNV-1" vertex="1">
          <mxGeometry x="357" y="1172" width="100" height="60" as="geometry" />
        </mxCell>
        <mxCell id="jOrfWxV1WeB5Tp7_03PW-77" value="bil2 &amp;gt;= bil1&lt;div&gt;&amp;amp;&amp;amp;&lt;/div&gt;&lt;div&gt;bil3 &amp;gt;= bil1&lt;/div&gt;" style="text;strokeColor=none;align=center;fillColor=none;html=1;verticalAlign=middle;whiteSpace=wrap;rounded=0;fontFamily=Helvetica;fontSize=11;fontColor=default;labelBackgroundColor=default;" parent="WIyWlLk6GJQsqaUBKTNV-1" vertex="1">
          <mxGeometry x="377" y="665" width="60" height="30" as="geometry" />
        </mxCell>
        <mxCell id="jOrfWxV1WeB5Tp7_03PW-78" value="bil1 &amp;gt;= bil2&lt;div&gt;&amp;amp;&amp;amp;&lt;/div&gt;&lt;div&gt;bil3 &amp;gt;= bil2&lt;/div&gt;" style="text;strokeColor=none;align=center;fillColor=none;html=1;verticalAlign=middle;whiteSpace=wrap;rounded=0;fontFamily=Helvetica;fontSize=11;fontColor=default;labelBackgroundColor=default;" parent="WIyWlLk6GJQsqaUBKTNV-1" vertex="1">
          <mxGeometry x="376" y="795" width="60" height="30" as="geometry" />
        </mxCell>
        <mxCell id="jOrfWxV1WeB5Tp7_03PW-79" value="terkecil = bil1" style="text;strokeColor=none;align=center;fillColor=none;html=1;verticalAlign=middle;whiteSpace=wrap;rounded=0;fontFamily=Helvetica;fontSize=11;fontColor=default;labelBackgroundColor=default;" parent="WIyWlLk6GJQsqaUBKTNV-1" vertex="1">
          <mxGeometry x="545.5" y="662" width="76" height="35" as="geometry" />
        </mxCell>
        <mxCell id="jOrfWxV1WeB5Tp7_03PW-80" value="terkecil = bil2" style="text;strokeColor=none;align=center;fillColor=none;html=1;verticalAlign=middle;whiteSpace=wrap;rounded=0;fontFamily=Helvetica;fontSize=11;fontColor=default;labelBackgroundColor=default;" parent="WIyWlLk6GJQsqaUBKTNV-1" vertex="1">
          <mxGeometry x="550" y="798" width="67" height="30" as="geometry" />
        </mxCell>
        <mxCell id="jOrfWxV1WeB5Tp7_03PW-81" value="terkecil = bil3" style="text;strokeColor=none;align=center;fillColor=none;html=1;verticalAlign=middle;whiteSpace=wrap;rounded=0;fontFamily=Helvetica;fontSize=11;fontColor=default;labelBackgroundColor=default;" parent="WIyWlLk6GJQsqaUBKTNV-1" vertex="1">
          <mxGeometry x="187.5" y="795" width="75" height="30" as="geometry" />
        </mxCell>
        <mxCell id="jOrfWxV1WeB5Tp7_03PW-83" value="status = &quot;Positif&quot;" style="text;strokeColor=none;align=center;fillColor=none;html=1;verticalAlign=middle;whiteSpace=wrap;rounded=0;fontFamily=Helvetica;fontSize=11;fontColor=default;labelBackgroundColor=default;" parent="WIyWlLk6GJQsqaUBKTNV-1" vertex="1">
          <mxGeometry x="541" y="925" width="90" height="30" as="geometry" />
        </mxCell>
        <mxCell id="jOrfWxV1WeB5Tp7_03PW-84" value="status = &quot;Negatif&quot;" style="text;strokeColor=none;align=center;fillColor=none;html=1;verticalAlign=middle;whiteSpace=wrap;rounded=0;fontFamily=Helvetica;fontSize=11;fontColor=default;labelBackgroundColor=default;" parent="WIyWlLk6GJQsqaUBKTNV-1" vertex="1">
          <mxGeometry x="181" y="925" width="92" height="30" as="geometry" />
        </mxCell>
        <mxCell id="jOrfWxV1WeB5Tp7_03PW-85" value="bil1 &amp;gt; 0&lt;div&gt;||&lt;/div&gt;&lt;div&gt;bil2 &amp;gt; 0&lt;/div&gt;&lt;div&gt;||&lt;/div&gt;&lt;div&gt;bil3 &amp;gt; 0&lt;/div&gt;" style="text;strokeColor=none;align=center;fillColor=none;html=1;verticalAlign=middle;whiteSpace=wrap;rounded=0;fontFamily=Helvetica;fontSize=11;fontColor=default;labelBackgroundColor=default;" parent="WIyWlLk6GJQsqaUBKTNV-1" vertex="1">
          <mxGeometry x="360" y="925" width="92" height="30" as="geometry" />
        </mxCell>
        <mxCell id="jOrfWxV1WeB5Tp7_03PW-86" value="end" style="text;strokeColor=none;align=center;fillColor=none;html=1;verticalAlign=middle;whiteSpace=wrap;rounded=0;fontFamily=Helvetica;fontSize=11;fontColor=default;labelBackgroundColor=default;" parent="WIyWlLk6GJQsqaUBKTNV-1" vertex="1">
          <mxGeometry x="361" y="1189" width="92" height="30" as="geometry" />
        </mxCell>
        <mxCell id="jOrfWxV1WeB5Tp7_03PW-87" value="True" style="text;strokeColor=none;align=center;fillColor=none;html=1;verticalAlign=middle;whiteSpace=wrap;rounded=0;fontFamily=Helvetica;fontSize=11;fontColor=default;labelBackgroundColor=default;" parent="WIyWlLk6GJQsqaUBKTNV-1" vertex="1">
          <mxGeometry x="453.5" y="384" width="60" height="30" as="geometry" />
        </mxCell>
        <mxCell id="jOrfWxV1WeB5Tp7_03PW-88" value="True" style="text;strokeColor=none;align=center;fillColor=none;html=1;verticalAlign=middle;whiteSpace=wrap;rounded=0;fontFamily=Helvetica;fontSize=11;fontColor=default;labelBackgroundColor=default;" parent="WIyWlLk6GJQsqaUBKTNV-1" vertex="1">
          <mxGeometry x="457.5" y="519" width="60" height="30" as="geometry" />
        </mxCell>
        <mxCell id="jOrfWxV1WeB5Tp7_03PW-89" value="False" style="text;strokeColor=none;align=center;fillColor=none;html=1;verticalAlign=middle;whiteSpace=wrap;rounded=0;fontFamily=Helvetica;fontSize=11;fontColor=default;labelBackgroundColor=default;" parent="WIyWlLk6GJQsqaUBKTNV-1" vertex="1">
          <mxGeometry x="297.5" y="519" width="60" height="30" as="geometry" />
        </mxCell>
        <mxCell id="jOrfWxV1WeB5Tp7_03PW-90" value="True" style="text;strokeColor=none;align=center;fillColor=none;html=1;verticalAlign=middle;whiteSpace=wrap;rounded=0;fontFamily=Helvetica;fontSize=11;fontColor=default;labelBackgroundColor=default;" parent="WIyWlLk6GJQsqaUBKTNV-1" vertex="1">
          <mxGeometry x="456" y="650" width="60" height="30" as="geometry" />
        </mxCell>
        <mxCell id="jOrfWxV1WeB5Tp7_03PW-91" value="True" style="text;strokeColor=none;align=center;fillColor=none;html=1;verticalAlign=middle;whiteSpace=wrap;rounded=0;fontFamily=Helvetica;fontSize=11;fontColor=default;labelBackgroundColor=default;" parent="WIyWlLk6GJQsqaUBKTNV-1" vertex="1">
          <mxGeometry x="456" y="780" width="60" height="30" as="geometry" />
        </mxCell>
        <mxCell id="jOrfWxV1WeB5Tp7_03PW-94" value="True" style="text;strokeColor=none;align=center;fillColor=none;html=1;verticalAlign=middle;whiteSpace=wrap;rounded=0;fontFamily=Helvetica;fontSize=11;fontColor=default;labelBackgroundColor=default;" parent="WIyWlLk6GJQsqaUBKTNV-1" vertex="1">
          <mxGeometry x="456" y="910" width="60" height="30" as="geometry" />
        </mxCell>
        <mxCell id="jOrfWxV1WeB5Tp7_03PW-95" value="False" style="text;strokeColor=none;align=center;fillColor=none;html=1;verticalAlign=middle;whiteSpace=wrap;rounded=0;fontFamily=Helvetica;fontSize=11;fontColor=default;labelBackgroundColor=default;" parent="WIyWlLk6GJQsqaUBKTNV-1" vertex="1">
          <mxGeometry x="301" y="780" width="60" height="30" as="geometry" />
        </mxCell>
        <mxCell id="jOrfWxV1WeB5Tp7_03PW-96" value="False" style="text;strokeColor=none;align=center;fillColor=none;html=1;verticalAlign=middle;whiteSpace=wrap;rounded=0;fontFamily=Helvetica;fontSize=11;fontColor=default;labelBackgroundColor=default;" parent="WIyWlLk6GJQsqaUBKTNV-1" vertex="1">
          <mxGeometry x="301.5" y="910" width="60" height="30" as="geometry" />
        </mxCell>
        <mxCell id="jOrfWxV1WeB5Tp7_03PW-97" value="" style="endArrow=classic;html=1;rounded=0;strokeColor=default;align=center;verticalAlign=middle;fontFamily=Helvetica;fontSize=11;fontColor=default;labelBackgroundColor=default;edgeStyle=orthogonalEdgeStyle;exitX=1;exitY=0.5;exitDx=0;exitDy=0;" parent="WIyWlLk6GJQsqaUBKTNV-1" source="jOrfWxV1WeB5Tp7_03PW-19" edge="1">
          <mxGeometry width="50" height="50" relative="1" as="geometry">
            <mxPoint x="678.3699999999997" y="414.00000000000006" as="sourcePoint" />
            <mxPoint x="492.25" y="1080.76" as="targetPoint" />
            <Array as="points">
              <mxPoint x="776" y="414" />
              <mxPoint x="776" y="1081" />
            </Array>
          </mxGeometry>
        </mxCell>
        <mxCell id="jOrfWxV1WeB5Tp7_03PW-104" value="" style="whiteSpace=wrap;html=1;fontFamily=Helvetica;fontSize=11;fontColor=default;labelBackgroundColor=default;" parent="WIyWlLk6GJQsqaUBKTNV-1" vertex="1">
          <mxGeometry x="319.75" y="1040" width="172.5" height="80" as="geometry" />
        </mxCell>
        <mxCell id="jOrfWxV1WeB5Tp7_03PW-111" value="" style="edgeStyle=orthogonalEdgeStyle;shape=connector;rounded=0;orthogonalLoop=1;jettySize=auto;html=1;strokeColor=default;align=center;verticalAlign=middle;fontFamily=Helvetica;fontSize=11;fontColor=default;labelBackgroundColor=default;endArrow=classic;" parent="WIyWlLk6GJQsqaUBKTNV-1" edge="1">
          <mxGeometry relative="1" as="geometry">
            <mxPoint x="406" y="1120" as="sourcePoint" />
            <mxPoint x="406" y="1170" as="targetPoint" />
            <Array as="points">
              <mxPoint x="406" y="1160" />
              <mxPoint x="406" y="1160" />
            </Array>
          </mxGeometry>
        </mxCell>
        <mxCell id="jOrfWxV1WeB5Tp7_03PW-106" value="Bilangan Terbesar = terbesar&lt;div&gt;Bilangan Terkecil = terkecil&lt;/div&gt;&lt;div&gt;Bilangan Terbesar = status&lt;/div&gt;" style="text;strokeColor=none;align=center;fillColor=none;html=1;verticalAlign=middle;whiteSpace=wrap;rounded=0;fontFamily=Helvetica;fontSize=11;fontColor=default;labelBackgroundColor=default;" parent="WIyWlLk6GJQsqaUBKTNV-1" vertex="1">
          <mxGeometry x="332.5" y="1065" width="150" height="30" as="geometry" />
        </mxCell>
      </root>
    </mxGraphModel>
  </diagram>
</mxfile>
